<mxfile host="app.diagrams.net" modified="2023-06-29T18:13:48.797Z" agent="Mozilla/5.0 (Windows NT 10.0; Win64; x64; rv:109.0) Gecko/20100101 Firefox/114.0" version="21.5.2" etag="3UM_ArZkBDNyrzw-yocu" type="github">
  <diagram name="PÃ¡gina-1" id="jflJ0v9CbN0i5etOPH7n">
    <mxGraphModel>
      <root>
        <mxCell id="0" />
        <mxCell id="1" parent="0" />
      </root>
    </mxGraphModel>
  </diagram>
</mxfile>
